<svg width="759" height="146" viewBox="0 0 759 146" fill="none" xmlns="http://www.w3.org/2000/svg">
<path d="M121 13.1982H138V23.1982H121V145.044H88.5V67.2979L76 77.1885V145.044H45V99.4424L33.5 108.118V145.044H0V105.626H10V135.044H23.5V103.135L25.4883 101.635L46.9883 85.415L55 79.3711V135.044H66V72.3496L67.8975 70.8477L90.3975 53.0459L98.5 46.6348V135.044H111V23.1982H93.5V13.1982H111V0H121V13.1982Z" fill="url(#paint0_linear_7_2)"/>
<path d="M758.26 107.898H750.533L737.093 84.714L727.492 96.186V107.898H720.773V35.8979H727.492V85.722L749.141 59.898H757.924L741.653 79.242L758.26 107.898Z" fill="#484848"/>
<path d="M706.763 95.85L712.763 99.114C710.587 102.154 707.819 104.586 704.459 106.41C701.131 108.234 697.515 109.146 693.611 109.146C689.195 109.146 685.163 108.01 681.515 105.738C677.899 103.466 675.003 100.426 672.827 96.618C670.683 92.778 669.611 88.538 669.611 83.898C669.611 80.378 670.235 77.098 671.483 74.058C672.731 70.986 674.443 68.298 676.619 65.994C678.827 63.658 681.387 61.834 684.299 60.522C687.211 59.21 690.315 58.554 693.611 58.554C697.515 58.554 701.131 59.466 704.459 61.29C707.819 63.114 710.587 65.562 712.763 68.634L706.763 71.85C705.099 69.738 703.099 68.122 700.763 67.002C698.427 65.85 696.043 65.274 693.611 65.274C690.379 65.274 687.451 66.138 684.827 67.866C682.203 69.562 680.123 71.818 678.587 74.634C677.083 77.45 676.331 80.538 676.331 83.898C676.331 87.258 677.099 90.346 678.635 93.162C680.203 95.978 682.299 98.234 684.923 99.93C687.547 101.594 690.443 102.426 693.611 102.426C696.235 102.426 698.699 101.818 701.003 100.602C703.307 99.386 705.227 97.802 706.763 95.85Z" fill="#484848"/>
<path d="M657.104 59.898H663.824V107.898H657.104L656.864 98.97C655.296 102.01 653.104 104.474 650.288 106.362C647.472 108.218 644.112 109.146 640.208 109.146C636.688 109.146 633.392 108.49 630.32 107.178C627.248 105.834 624.544 103.994 622.208 101.658C619.872 99.322 618.048 96.618 616.736 93.546C615.424 90.474 614.768 87.178 614.768 83.658C614.768 80.202 615.408 76.954 616.688 73.914C618 70.874 619.792 68.202 622.064 65.898C624.368 63.594 627.024 61.802 630.032 60.522C633.072 59.21 636.32 58.554 639.776 58.554C643.776 58.554 647.264 59.514 650.24 61.434C653.215 63.322 655.584 65.802 657.344 68.874L657.104 59.898ZM640.064 102.618C643.488 102.618 646.432 101.786 648.896 100.122C651.36 98.426 653.248 96.154 654.56 93.306C655.904 90.458 656.576 87.322 656.576 83.898C656.576 80.378 655.904 77.21 654.56 74.394C653.216 71.546 651.312 69.29 648.848 67.626C646.384 65.962 643.456 65.13 640.064 65.13C636.672 65.13 633.568 65.978 630.752 67.674C627.968 69.338 625.743 71.594 624.079 74.442C622.447 77.29 621.632 80.442 621.632 83.898C621.632 87.386 622.48 90.554 624.176 93.402C625.872 96.218 628.112 98.458 630.896 100.122C633.712 101.786 636.768 102.618 640.064 102.618Z" fill="#484848"/>
<path d="M586.523 107.898V59.898H593.243V66.522C594.939 64.09 597.147 62.154 599.867 60.714C602.587 59.274 605.547 58.554 608.747 58.554C610.603 58.554 612.395 58.794 614.123 59.274L611.387 65.946C610.043 65.53 608.73 65.322 607.451 65.322C604.858 65.322 602.475 65.962 600.299 67.242C598.155 68.522 596.443 70.234 595.163 72.378C593.883 74.522 593.243 76.906 593.243 79.53V107.898H586.523Z" fill="#484848"/>
<path d="M585.042 40.6979V47.4179H562.002V107.898H555.282V47.4179H532.29V40.6979H585.042Z" fill="#484848"/>
<path d="M510.967 35.8979H522.679V107.898H510.967V101.898C509.431 104.042 507.495 105.786 505.159 107.13C502.823 108.474 500.119 109.146 497.047 109.146C493.559 109.146 490.295 108.49 487.255 107.178C484.215 105.866 481.527 104.058 479.191 101.754C476.887 99.418 475.079 96.73 473.767 93.69C472.455 90.65 471.799 87.386 471.799 83.898C471.799 80.41 472.455 77.146 473.767 74.1059C475.079 71.0659 476.887 68.394 479.191 66.09C481.527 63.754 484.215 61.93 487.255 60.618C490.295 59.306 493.559 58.65 497.047 58.65C500.119 58.65 502.823 59.322 505.159 60.666C507.495 61.978 509.431 63.722 510.967 65.898V35.8979ZM497.191 97.866C499.687 97.866 501.895 97.242 503.815 95.994C505.735 94.746 507.239 93.066 508.327 90.954C509.415 88.81 509.959 86.458 509.959 83.898C509.959 81.306 509.415 78.954 508.327 76.842C507.239 74.698 505.719 73.002 503.767 71.754C501.847 70.506 499.655 69.882 497.191 69.882C494.727 69.882 492.471 70.522 490.423 71.802C488.407 73.05 486.791 74.73 485.575 76.842C484.391 78.954 483.799 81.306 483.799 83.898C483.799 86.49 484.407 88.842 485.623 90.954C486.839 93.066 488.455 94.746 490.471 95.994C492.519 97.242 494.759 97.866 497.191 97.866Z" fill="#484848"/>
<path d="M441.352 107.898L441.304 59.898H453.016L453.064 64.17C454.696 62.442 456.648 61.082 458.92 60.09C461.192 59.066 463.64 58.554 466.264 58.554C468.024 58.554 469.784 58.81 471.544 59.322L466.936 71.13C465.72 70.65 464.504 70.41 463.288 70.41C461.4 70.41 459.672 70.874 458.104 71.802C456.568 72.698 455.336 73.93 454.408 75.498C453.512 77.034 453.064 78.746 453.064 80.634V107.898H441.352Z" fill="#484848"/>
<path d="M420.027 59.898H431.739V107.898H420.027L419.499 101.946C418.187 104.09 416.443 105.834 414.267 107.178C412.123 108.49 409.579 109.146 406.635 109.146C403.083 109.146 399.755 108.474 396.651 107.13C393.547 105.786 390.811 103.93 388.443 101.562C386.107 99.194 384.267 96.458 382.923 93.354C381.611 90.25 380.955 86.922 380.955 83.37C380.955 79.946 381.579 76.73 382.827 73.722C384.107 70.714 385.883 68.074 388.155 65.802C390.427 63.53 393.051 61.754 396.027 60.474C399.003 59.194 402.203 58.554 405.627 58.554C408.795 58.554 411.627 59.258 414.123 60.666C416.651 62.074 418.795 63.866 420.555 66.042L420.027 59.898ZM406.347 97.866C408.843 97.866 411.051 97.242 412.971 95.994C414.891 94.746 416.395 93.066 417.483 90.954C418.571 88.81 419.115 86.458 419.115 83.898C419.115 81.306 418.571 78.954 417.483 76.842C416.395 74.698 414.875 73.002 412.923 71.754C411.003 70.506 408.811 69.882 406.347 69.882C403.883 69.882 401.627 70.522 399.579 71.802C397.563 73.05 395.947 74.73 394.731 76.842C393.547 78.954 392.955 81.306 392.955 83.898C392.955 86.49 393.563 88.842 394.779 90.954C395.995 93.066 397.611 94.746 399.627 95.994C401.675 97.242 403.915 97.866 406.347 97.866Z" fill="#484848"/>
<path d="M330.134 107.898H318.518L302.486 59.8979H313.958L324.374 90.9539L334.742 59.8979H346.31L356.678 90.9539L367.094 59.8979H378.566L362.534 107.898H350.918L340.502 76.6979L330.134 107.898Z" fill="#484848"/>
<path d="M276.143 109.146C271.727 109.146 267.695 108.01 264.047 105.738C260.431 103.466 257.535 100.41 255.359 96.57C253.215 92.73 252.143 88.49 252.143 83.85C252.143 80.362 252.767 77.098 254.015 74.058C255.263 70.986 256.975 68.298 259.151 65.994C261.359 63.658 263.919 61.834 266.831 60.522C269.743 59.21 272.847 58.554 276.143 58.554C279.887 58.554 283.311 59.354 286.415 60.954C289.551 62.522 292.207 64.682 294.383 67.434C296.559 70.186 298.143 73.322 299.135 76.842C300.127 80.362 300.351 84.042 299.807 87.882H264.719C265.167 89.674 265.903 91.29 266.927 92.73C267.951 94.138 269.247 95.274 270.815 96.138C272.383 96.97 274.159 97.402 276.143 97.434C278.191 97.466 280.047 96.986 281.711 95.994C283.407 94.97 284.815 93.594 285.935 91.866L297.887 94.65C295.935 98.906 293.023 102.394 289.151 105.114C285.279 107.802 280.943 109.146 276.143 109.146ZM264.335 79.098H287.951C287.599 77.178 286.847 75.45 285.695 73.914C284.575 72.346 283.183 71.098 281.519 70.17C279.855 69.242 278.063 68.778 276.143 68.778C274.223 68.778 272.447 69.242 270.815 70.17C269.183 71.066 267.791 72.298 266.639 73.866C265.519 75.402 264.751 77.146 264.335 79.098Z" fill="#484848"/>
<path d="M247.469 71.6099H238.157V107.898H226.445V71.6099H219.341V59.8979H226.445V44.8259H238.157V59.8979H247.469V71.6099Z" fill="#484848"/>
<path d="M187.152 109.146C183.44 109.146 179.872 108.57 176.448 107.418C173.056 106.234 170.08 104.554 167.52 102.378C164.96 100.17 163.12 97.53 162 94.458L172.992 90.426C173.44 91.706 174.352 92.874 175.728 93.93C177.104 94.986 178.784 95.834 180.768 96.474C182.752 97.114 184.88 97.434 187.152 97.434C189.488 97.434 191.664 97.082 193.68 96.378C195.728 95.642 197.376 94.634 198.624 93.354C199.872 92.042 200.496 90.522 200.496 88.794C200.496 87.034 199.84 85.594 198.528 84.474C197.216 83.322 195.536 82.41 193.488 81.738C191.44 81.066 189.328 80.554 187.152 80.202C182.384 79.466 178.112 78.33 174.336 76.794C170.56 75.258 167.568 73.13 165.36 70.41C163.184 67.69 162.096 64.17 162.096 59.85C162.096 55.786 163.264 52.234 165.6 49.194C167.936 46.154 171.008 43.786 174.816 42.09C178.624 40.394 182.736 39.546 187.152 39.546C190.832 39.546 194.384 40.122 197.808 41.274C201.232 42.426 204.224 44.106 206.784 46.314C209.376 48.522 211.232 51.178 212.352 54.282L201.312 58.266C200.864 56.986 199.952 55.818 198.576 54.762C197.2 53.706 195.52 52.874 193.536 52.266C191.552 51.626 189.424 51.306 187.152 51.306C184.88 51.274 182.72 51.642 180.672 52.41C178.656 53.146 177.008 54.154 175.728 55.434C174.448 56.714 173.808 58.186 173.808 59.85C173.808 61.994 174.4 63.61 175.584 64.698C176.8 65.786 178.416 66.586 180.432 67.098C182.448 67.578 184.688 68.026 187.152 68.442C191.632 69.146 195.776 70.33 199.584 71.994C203.392 73.658 206.448 75.882 208.752 78.666C211.056 81.418 212.208 84.794 212.208 88.794C212.208 92.858 211.056 96.426 208.752 99.498C206.448 102.538 203.392 104.906 199.584 106.602C195.776 108.298 191.632 109.146 187.152 109.146Z" fill="#484848"/>
<defs>
<linearGradient id="paint0_linear_7_2" x1="-9.83761e-06" y1="162.975" x2="104.581" y2="16.0581" gradientUnits="userSpaceOnUse">
<stop stop-color="#199547"/>
<stop offset="1" stop-color="#1FB858"/>
</linearGradient>
</defs>
</svg>
