<svg xmlns="http://www.w3.org/2000/svg" viewBox="0 0 48 48" fill="none">
  <rect width="48" height="48" rx="8" fill="#1A1F71"/>
  <path d="M20.5 30H17.5L19.5 18H22.5L20.5 30Z" fill="white"/>
  <path d="M30.5 18.3C29.8 18 28.8 17.7 27.5 17.7C24.5 17.7 22.4 19.3 22.4 21.5C22.4 23.2 23.9 24.1 25.1 24.6C26.3 25.2 26.7 25.5 26.7 26C26.7 26.7 25.8 27 25 27C23.8 27 23.2 26.8 22.2 26.4L21.8 26.2L21.4 29C22.2 29.4 23.6 29.7 25 29.7C28.2 29.7 30.2 28.1 30.2 25.8C30.2 24.4 29.4 23.4 27.6 22.6C26.5 22.1 25.8 21.7 25.8 21.2C25.8 20.7 26.4 20.2 27.5 20.2C28.5 20.2 29.2 20.4 29.7 20.6L30 20.8L30.5 18.3Z" fill="white"/>
  <path d="M35.4 18H33.1C32.4 18 31.8 18.2 31.5 19L27 30H30.2L30.8 28.2H34.7L35.1 30H38L35.4 18ZM31.7 25.8L33.2 21.5L34.1 25.8H31.7Z" fill="white"/>
  <path d="M16.5 18L13.5 26.1L13.2 24.8L12.2 19.2C12 18.4 11.4 18 10.7 18H6.1L6 18.3C7.2 18.6 8.3 19 9.2 19.5L12 30H15.2L19.7 18H16.5Z" fill="white"/>
</svg>
